<?xml version="1.0" encoding="UTF-8"?>
<svg version="1.1" xmlns="http://www.w3.org/2000/svg" width="512" height="512">
<path d="M0 0 C1.45371099 -0.00339833 1.45371099 -0.00339833 2.93678987 -0.00686532 C6.15744711 -0.01315355 9.3780617 -0.0123793 12.59872437 -0.0115509 C14.91903741 -0.01454566 17.23934996 -0.01794892 19.55966187 -0.02172852 C25.84507018 -0.03054132 32.13046487 -0.03290551 38.41587877 -0.0335443 C42.348852 -0.03425645 46.28182179 -0.0363939 50.21479416 -0.03904152 C63.24499569 -0.04781003 76.27518868 -0.05246235 89.30539317 -0.05171105 C90.00644051 -0.05167109 90.70748785 -0.05163113 91.42977905 -0.05158997 C92.48265055 -0.05152864 92.48265055 -0.05152864 93.55679218 -0.05146609 C104.91998169 -0.05106005 116.283138 -0.06062115 127.64631791 -0.07472833 C139.34460248 -0.08913563 151.04287091 -0.0959961 162.74116457 -0.09513456 C169.29647903 -0.09488042 175.8517559 -0.09768455 182.40706253 -0.10831261 C188.57786111 -0.11804452 194.74858656 -0.11803803 200.91938782 -0.11079597 C203.17348208 -0.10975638 205.42758102 -0.11207548 207.68166733 -0.11815643 C223.53349338 -0.15812221 238.98816078 0.19519524 254.30722046 4.75871277 C255.18628052 5.0166864 256.06534058 5.27466003 256.97103882 5.54045105 C288.99514319 15.34463364 315.76661994 38.11071335 331.68222046 67.44621277 C341.51441011 86.2969978 346.04045506 107.08265167 346.00343323 128.26399231 C346.00569878 129.23313297 346.00796434 130.20227362 346.01029855 131.20078218 C346.01658678 134.42143942 346.01581253 137.64205401 346.01498413 140.86271667 C346.01797889 143.18302972 346.02138215 145.50334227 346.02516174 147.82365417 C346.03397454 154.10906249 346.03633874 160.39445718 346.03697753 166.67987108 C346.03768967 170.61284431 346.03982713 174.5458141 346.04247475 178.47878647 C346.05124325 191.508988 346.05589557 204.53918099 346.05514427 217.56938548 C346.05508434 218.62095649 346.05508434 218.62095649 346.05502319 219.69377136 C346.05498231 220.3956857 346.05494143 221.09760003 346.05489931 221.82078449 C346.05449328 233.183974 346.06405438 244.54713031 346.07816156 255.91031022 C346.09256886 267.60859479 346.09942933 279.30686322 346.09856778 291.00515687 C346.09831365 297.56047133 346.10111778 304.11574821 346.11174583 310.67105484 C346.12147775 316.84185342 346.12147126 323.01257887 346.1142292 329.18338013 C346.11318961 331.43747439 346.11550871 333.69157333 346.12158966 335.94565964 C346.16155543 351.79748569 345.80823799 367.25215309 341.24472046 382.57121277 C340.98674683 383.45027283 340.72877319 384.32933289 340.46298218 385.23503113 C330.65912068 417.2580867 307.89302361 444.03228446 278.55722046 459.94621277 C259.81301027 469.71275229 238.95749364 474.29475701 217.88661194 474.27415466 C216.92114797 474.27712579 215.955684 474.28009691 214.96096355 474.28315806 C211.74653957 474.29178496 208.53215311 474.29334822 205.31771851 474.29484558 C203.00404278 474.29947815 200.69036782 474.3045034 198.37669373 474.30989075 C192.10335687 474.32297771 185.83003071 474.32945291 179.55668235 474.33390141 C175.62954615 474.33683918 171.70241283 474.34094539 167.77527809 474.34540558 C156.87443392 474.35750918 145.97359226 474.36789201 135.07274151 474.37128067 C134.37629736 474.37150024 133.67985321 474.3717198 132.9623047 474.37194602 C132.26430917 474.3721643 131.56631363 474.37238258 130.84716672 474.37260747 C129.43305377 474.37305092 128.01894083 474.37349748 126.60482788 474.37394714 C125.55268199 474.37427929 125.55268199 474.37427929 124.47928063 474.37461814 C113.13811383 474.37855804 101.7970116 474.39598966 90.4558697 474.41930667 C78.77567749 474.44312416 67.09551752 474.45548729 55.41530067 474.45664859 C48.87211713 474.45769182 42.32902469 474.46349605 35.78586388 474.4814682 C29.62078705 474.49807269 23.45586857 474.50004489 17.29077721 474.49132919 C15.04319837 474.4905653 12.79561058 474.49481467 10.54805374 474.50478745 C-29.76007148 474.67297505 -63.013275 464.36541924 -92.63027954 436.00871277 C-116.22798316 411.80593982 -128.32277674 379.63583624 -128.26399231 346.00343323 C-128.26625787 345.03429257 -128.26852342 344.06515191 -128.27085763 343.06664336 C-128.27714586 339.84598612 -128.27637161 336.62537153 -128.27554321 333.40470886 C-128.27853797 331.08439581 -128.28194123 328.76408326 -128.28572083 326.44377136 C-128.29453363 320.15836304 -128.29689782 313.87296835 -128.29753661 307.58755445 C-128.29824876 303.65458123 -128.30038621 299.72161144 -128.30303383 295.78863907 C-128.31180234 282.75843754 -128.31645466 269.72824454 -128.31570335 256.69804005 C-128.3156634 255.99699271 -128.31562344 255.29594537 -128.31558228 254.57365417 C-128.31554139 253.87173984 -128.31550051 253.16982551 -128.31545839 252.44664104 C-128.31505236 241.08345153 -128.32461346 229.72029523 -128.33872064 218.35711531 C-128.35312794 206.65883074 -128.35998841 194.96056232 -128.35912687 183.26226866 C-128.35887273 176.7069542 -128.36167686 170.15167733 -128.37230492 163.5963707 C-128.38203683 157.42557212 -128.38203034 151.25484667 -128.37478828 145.08404541 C-128.37374869 142.82995114 -128.37606779 140.5758522 -128.38214874 138.3217659 C-128.42211452 122.46993985 -128.06879707 107.01527245 -123.50527954 91.69621277 C-123.24730591 90.81715271 -122.98933228 89.93809265 -122.72354126 89.03239441 C-112.91935867 57.00829003 -90.15327896 30.23681329 -60.81777954 14.32121277 C-41.96699451 4.48902312 -21.18134064 -0.03702183 0 0 Z M114.15878296 103.96183777 C109.5013083 111.80897689 108.36652916 120.93807961 106.70614624 129.76774597 C106.40228764 131.35489396 106.09780138 132.94192189 105.79273987 134.52883911 C104.96551893 138.84145872 104.14702065 143.15569337 103.32998896 147.47025323 C102.45913976 152.06034328 101.57998148 156.64884163 100.70172119 161.23751831 C99.0259106 169.99973986 97.35715731 178.76328955 95.69108188 187.52736682 C93.30256209 200.09007514 90.90335826 212.65074276 88.50460434 225.21150017 C88.14174555 227.11166648 87.7788928 229.01183394 87.41604614 230.91200256 C87.23702373 231.84946504 87.05800132 232.78692753 86.87355399 233.75279796 C85.79415668 239.40633223 84.71660208 245.06021419 83.64051127 250.71437871 C80.26068946 268.47225353 76.86720681 286.22687071 73.37976956 303.9639703 C72.90679481 306.37011091 72.43468607 308.77641983 71.96285057 311.18278408 C71.65887479 312.73252826 71.35487241 314.28226722 71.05084229 315.83200073 C70.90362555 316.58241117 70.75640881 317.33282161 70.60473096 318.10597175 C69.75229341 322.44662938 68.89281961 326.7858187 68.02778721 331.12398291 C67.63031718 333.12290797 67.23619306 335.1224582 66.84352493 337.12233162 C66.37321657 339.51654908 65.89739238 341.90969329 65.41465378 344.30143547 C63.72664363 352.95889357 62.35436604 361.12776522 66.86972046 369.13371277 C70.88465473 374.44447238 75.35324248 377.6798372 81.86972046 379.13371277 C88.1478262 379.94754129 93.42123348 378.17263785 98.86972046 375.13371277 C108.16039587 367.63120082 108.94597456 354.48396146 111.03329468 343.49382019 C111.33724175 341.91801553 111.64172577 340.34231436 111.94670105 338.76670837 C112.77309815 334.4890589 113.5919507 330.20999621 114.40945196 325.93063903 C115.28116785 321.37454823 116.15985441 316.81980172 117.03771973 312.26489258 C118.71286206 303.56752531 120.3817166 294.86896373 122.04835904 286.16996413 C124.0742812 275.59754281 126.10875587 265.02677058 128.14315796 254.45597839 C130.31113993 243.19078884 132.47672053 231.9251572 134.63113403 220.65736389 C135.33654011 216.96895988 136.04205312 213.28057635 136.74765015 209.59220886 C136.92015462 208.69030437 137.0926591 207.78839988 137.27039099 206.85916495 C139.60975796 194.63411401 141.98479884 182.41657263 144.39029956 170.20437133 C145.3273673 165.43925798 146.25715953 160.67271963 147.18652308 155.90609843 C148.04443313 151.51054833 148.91429673 147.11760118 149.7937851 142.72632074 C150.44895275 139.43630824 151.0858442 136.14280515 151.72567749 132.84977722 C151.96077152 131.69742144 152.19586555 130.54506565 152.43808365 129.35778999 C154.04886889 120.93148123 155.07891577 112.26003385 150.16659546 104.73136902 C146.28247288 99.94641078 142.00982753 96.38679584 135.86972046 95.13371277 C126.89136397 94.25059574 120.00739284 97.05295358 114.15878296 103.96183777 Z M-17.30996704 175.68449402 C-18.6529246 177.02662146 -19.99669946 178.36793154 -21.34124756 179.70846558 C-24.14453489 182.508907 -26.93891074 185.31785754 -29.72695923 188.13346863 C-33.28912432 191.72976286 -36.87104239 195.30558768 -40.4596386 198.87548542 C-43.23300406 201.63825149 -45.99649073 204.41073145 -48.75705338 207.18628502 C-50.07388383 208.50827276 -51.39351524 209.82747695 -52.71606064 211.14374733 C-54.56577507 212.98797218 -56.40197595 214.8447055 -58.23526001 216.70524597 C-59.04571526 217.5059124 -59.04571526 217.5059124 -59.87254333 218.32275391 C-65.04453551 223.62524266 -68.71280468 229.5414002 -68.63027954 237.13371277 C-68.64059204 238.08246277 -68.65090454 239.03121277 -68.66152954 240.00871277 C-67.42753541 247.2675018 -63.35560479 252.5036792 -58.23526001 257.56217957 C-57.65577103 258.15028412 -57.07628204 258.73838867 -56.47923279 259.34431458 C-54.57865022 261.26742457 -52.66388267 263.17560861 -50.74746704 265.08293152 C-49.40899454 266.42664606 -48.07104125 267.77087796 -46.73358154 269.11560059 C-43.93427142 271.92529114 -41.12764653 274.72741285 -38.31582642 277.52458191 C-34.72976361 281.0934768 -31.16441957 284.68228586 -27.60458183 288.27731609 C-24.84748602 291.05647272 -22.0786799 293.82372918 -19.3064003 296.58773232 C-17.98781647 297.90550109 -16.67302149 299.22707328 -15.36227036 300.55263329 C-3.91058361 312.50402506 -3.91058361 312.50402506 11.36972046 317.75871277 C17.67390007 317.33471485 23.42458308 314.67784357 27.79940796 310.12590027 C31.37049572 305.49544676 33.02375889 301.85933138 33.18222046 295.94621277 C33.21960327 295.04515808 33.25698608 294.14410339 33.29550171 293.21574402 C32.10029711 284.56421712 26.44897516 279.17532551 20.45565796 273.36418152 C19.64480743 272.56136246 18.83395691 271.7585434 17.99853516 270.93139648 C15.42327342 268.38498162 12.83469554 265.85265325 10.24472046 263.32121277 C7.65029899 260.76932674 5.05873124 258.21460464 2.46948242 255.6574707 C0.86155805 254.07121552 -0.74984263 252.48847479 -2.36505127 250.90963745 C-3.09275726 250.19491776 -3.82046326 249.48019806 -4.57022095 248.74382019 C-5.21101593 248.11731064 -5.85181091 247.49080109 -6.51202393 246.8453064 C-9.33120936 243.86351552 -10.52607632 241.60968184 -10.81777954 237.57121277 C-10.62549769 233.0636009 -9.66433906 231.03683572 -6.57949829 227.77433777 C-5.76295776 226.90865173 -4.94641724 226.0429657 -4.10513306 225.15104675 C2.78482791 218.11242322 9.83195394 211.22331994 16.89315796 204.35710144 C18.97528635 202.32955265 21.04440095 200.28943624 23.11190796 198.24699402 C23.74627777 197.6364064 24.38064758 197.02581879 25.03424072 196.39672852 C29.57871022 191.87938452 32.3029753 187.80479176 33.30331421 181.32511902 C33.31410219 174.0648096 32.25669633 168.81592141 27.25643921 163.37980652 C22.52725791 159.02812084 18.04703821 157.13597661 11.61972046 156.69621277 C-0.90244474 157.27912143 -9.09240586 167.37409081 -17.30996704 175.68449402 Z M187.86972046 166.13371277 C184.29303072 171.90256718 183.6175576 178.46924072 184.86972046 185.13371277 C188.08329405 191.70605307 192.97215022 196.60830795 198.16268921 201.64933777 C198.94992874 202.42758911 199.73716827 203.20584045 200.54826355 204.00767517 C203.04412842 206.47370923 205.54973175 208.92950308 208.05722046 211.38371277 C210.57447715 213.85311104 213.08939181 216.32472852 215.59831238 218.80259705 C217.15466259 220.3392145 218.71592485 221.87087646 220.28260803 223.3969574 C220.98706558 224.09158081 221.69152313 224.78620422 222.41732788 225.50187683 C223.34734871 226.4116629 223.34734871 226.4116629 224.29615784 227.33982849 C227.43501934 230.91817626 228.446041 234.19205528 228.30949402 239.00776672 C226.82604561 246.1790284 218.98892997 252.24567809 213.95175171 257.14152527 C212.4353652 258.63750705 210.9190925 260.1336042 209.40292358 261.62980652 C207.03535197 263.95379413 204.66533094 266.27522091 202.29281616 268.59416199 C199.98516573 270.85348342 197.68684483 273.12198358 195.38925171 275.39152527 C194.32514824 276.42299179 194.32514824 276.42299179 193.23954773 277.47529602 C188.83369372 281.83661934 185.37601147 285.71282758 184.43612671 292.06340027 C184.42601317 299.68900977 185.21434193 305.1685564 190.48300171 310.88371277 C195.88695435 315.86828993 201.25827173 317.66688059 208.58456421 317.43449402 C221.63237883 315.71708936 231.96982583 301.20533272 240.82675171 292.37980652 C241.37400091 291.83538469 241.92125011 291.29096287 242.48508263 290.73004341 C245.37239087 287.85757989 248.25692776 284.98236918 251.13900757 282.10466003 C254.0953032 279.15387683 257.06079328 276.21251528 260.02846241 273.27317715 C262.33191063 270.98842363 264.6285545 268.69692033 266.92343712 266.40356636 C268.01367898 265.31632803 269.10639363 264.2315629 270.20173073 263.14945793 C281.79474566 252.0120339 281.79474566 252.0120339 286.30722046 237.07121277 C286.3678064 236.19336121 286.42839233 235.31550964 286.49081421 234.41105652 C284.38539955 223.30135273 274.55999931 215.25143399 266.87753296 207.64543152 C265.60424157 206.37198482 264.33161952 205.09786855 263.05963135 203.82312012 C260.40480191 201.1669136 257.74320112 198.51775075 255.07626343 195.873703 C251.67293882 192.49880396 248.28545196 189.10851741 244.90268135 185.71303082 C242.28135635 183.08472448 239.65267157 180.46388048 237.02166367 177.84527016 C235.77020073 176.59829478 234.52078223 175.34926384 233.27353287 174.09807396 C221.89541374 161.85720068 221.89541374 161.85720068 206.61972046 156.88371277 C198.88935042 157.00879966 193.00122434 160.53811939 187.86972046 166.13371277 Z " fill="#000000" transform="translate(147.13027954101563,18.866287231445313)"/>
</svg>
